<svg xmlns="http://www.w3.org/2000/svg" viewBox="0 0 680 560" width="680" role="img">
<title>MG996R servo tester — detailed schematic (resistors/capacitors/inductor/NPN buzzer driver)</title>
<desc>ESP32-CAM used as the MCU. I2C bus SDA=IO14 / SCL=IO15 carries AS5600 (0x36), SSD1306 OLED (0x3C), and INA219 (0x40); SDA/SCL each get a 4.7k pull-up to 3V3, and 3V3-GND gets a 0.1uF decoupling cap. The servo is powered from an external 5-6V supply through the INA219 high side; Vin- goes through a ferrite bead to servo V+, and V+/GND get a 470-1000uF electrolytic cap forming an LC filter. IO13 outputs PWM to the servo SIG line. The 5V buzzer is driven by IO2 through a 1k base resistor into an NPN (S8050) low-side switch, with a flyback diode across the buzzer. Everything shares a common ground.</desc>
<style>
text{font-family:'Segoe UI',Arial,sans-serif;fill:#1f2937;}
.th{font-size:14px;font-weight:600;}
.ts{font-size:12px;}
</style>
<defs>
<marker id="ar" viewBox="0 0 10 10" refX="8" refY="5" markerWidth="6" markerHeight="6" orient="auto-start-reverse">
<path d="M2 1L8 5L2 9" fill="none" stroke="#4b5563" stroke-width="1.4" stroke-linecap="round"/></marker>
</defs>
<rect x="0" y="0" width="680" height="560" fill="#ffffff"/>

<line x1="180" y1="52" x2="650" y2="52" stroke="#d84a3a" stroke-width="1.8"/>
<line x1="180" y1="86" x2="650" y2="86" stroke="#2f6fe0" stroke-width="1.6"/>
<line x1="180" y1="110" x2="650" y2="110" stroke="#12a06d" stroke-width="1.6"/>
<line x1="40" y1="330" x2="650" y2="330" stroke="#7a7a7a" stroke-width="1.8"/>
<text class="ts" x="654" y="55">3V3</text>
<text class="ts" x="654" y="89">SDA</text>
<text class="ts" x="654" y="113">SCL</text>
<text class="ts" x="654" y="333">GND ★</text>

<rect x="26" y="40" width="124" height="255" rx="5" fill="none" stroke="#8a8a8a" stroke-width="1.3"/>
<text class="th" x="88" y="180" text-anchor="middle">ESP32-CAM</text>
<text class="ts" x="88" y="196" text-anchor="middle">(MCU)·5V via USB</text>
<line x1="150" y1="52" x2="180" y2="52" stroke="#d84a3a" stroke-width="1.5"/>
<line x1="150" y1="86" x2="180" y2="86" stroke="#2f6fe0" stroke-width="1.5"/>
<line x1="150" y1="110" x2="180" y2="110" stroke="#12a06d" stroke-width="1.5"/>
<line x1="150" y1="140" x2="176" y2="140" stroke="#9a5cc7" stroke-width="1.5"/>
<line x1="150" y1="168" x2="176" y2="168" stroke="#c2760f" stroke-width="1.5"/>
<line x1="150" y1="196" x2="176" y2="196" stroke="#4b5563" stroke-width="1.5"/>
<line x1="88" y1="295" x2="88" y2="330" stroke="#7a7a7a" stroke-width="1.5"/>
<text class="ts" x="146" y="52" text-anchor="end">3V3</text>
<text class="ts" x="146" y="83" text-anchor="end">IO14</text>
<text class="ts" x="146" y="107" text-anchor="end">IO15</text>
<text class="ts" x="146" y="137" text-anchor="end">IO13</text>
<text class="ts" x="146" y="165" text-anchor="end">5V</text>
<text class="ts" x="146" y="193" text-anchor="end">IO2</text>
<text class="ts" x="108" y="312" text-anchor="end">GND</text>
<circle cx="180" cy="52" r="3" fill="#d84a3a"/><circle cx="180" cy="86" r="3" fill="#2f6fe0"/>
<circle cx="180" cy="110" r="3" fill="#12a06d"/><circle cx="88" cy="330" r="3" fill="#7a7a7a"/>
<rect x="177" y="132" width="30" height="16" rx="3" fill="none" stroke="#9a5cc7" stroke-width="1"/><text class="ts" x="192" y="144" text-anchor="middle">PWM</text>
<text class="ts" x="180" y="164">5V→</text>
<text class="ts" x="180" y="192">→BUZZ</text>

<line x1="205" y1="52" x2="205" y2="62" stroke="#4b5563" stroke-width="1.3"/>
<rect x="200" y="62" width="10" height="18" fill="none" stroke="#4b5563" stroke-width="1.2"/>
<line x1="205" y1="80" x2="205" y2="86" stroke="#4b5563" stroke-width="1.3"/>
<circle cx="205" cy="52" r="2.6" fill="#d84a3a"/><circle cx="205" cy="86" r="2.6" fill="#2f6fe0"/>
<line x1="228" y1="52" x2="228" y2="74" stroke="#4b5563" stroke-width="1.3"/>
<rect x="223" y="74" width="10" height="18" fill="none" stroke="#4b5563" stroke-width="1.2"/>
<line x1="228" y1="92" x2="228" y2="110" stroke="#4b5563" stroke-width="1.3"/>
<circle cx="228" cy="52" r="2.6" fill="#d84a3a"/><circle cx="228" cy="110" r="2.6" fill="#12a06d"/>
<text class="ts" x="243" y="72">4.7k ×2 (pull-up)</text>

<line x1="360" y1="52" x2="360" y2="150" stroke="#4b5563" stroke-width="1.2"/>
<line x1="352" y1="150" x2="368" y2="150" stroke="#4b5563" stroke-width="1.6"/>
<line x1="352" y1="156" x2="368" y2="156" stroke="#4b5563" stroke-width="1.6"/>
<line x1="360" y1="156" x2="360" y2="330" stroke="#4b5563" stroke-width="1.2"/>
<circle cx="360" cy="52" r="2.6" fill="#d84a3a"/><circle cx="360" cy="330" r="2.6" fill="#7a7a7a"/>
<text class="ts" x="372" y="150">0.1µF decoupling</text>
<text class="ts" x="372" y="164">(one per module)</text>

<rect x="248" y="170" width="96" height="66" rx="5" fill="none" stroke="#8a8a8a" stroke-width="1.3"/>
<text class="th" x="296" y="196" text-anchor="middle">AS5600</text>
<text class="ts" x="296" y="212" text-anchor="middle">0x36</text>
<line x1="266" y1="170" x2="266" y2="52" stroke="#d84a3a" stroke-width="1.3"/>
<line x1="296" y1="170" x2="296" y2="86" stroke="#2f6fe0" stroke-width="1.3"/>
<line x1="326" y1="170" x2="326" y2="110" stroke="#12a06d" stroke-width="1.3"/>
<line x1="296" y1="236" x2="296" y2="330" stroke="#7a7a7a" stroke-width="1.3"/>
<circle cx="266" cy="52" r="2.6" fill="#d84a3a"/><circle cx="296" cy="86" r="2.6" fill="#2f6fe0"/><circle cx="326" cy="110" r="2.6" fill="#12a06d"/><circle cx="296" cy="330" r="2.6" fill="#7a7a7a"/>

<rect x="400" y="170" width="96" height="66" rx="5" fill="none" stroke="#8a8a8a" stroke-width="1.3"/>
<text class="th" x="448" y="196" text-anchor="middle">SSD1306</text>
<text class="ts" x="448" y="212" text-anchor="middle">0x3C</text>
<line x1="418" y1="170" x2="418" y2="52" stroke="#d84a3a" stroke-width="1.3"/>
<line x1="448" y1="170" x2="448" y2="86" stroke="#2f6fe0" stroke-width="1.3"/>
<line x1="478" y1="170" x2="478" y2="110" stroke="#12a06d" stroke-width="1.3"/>
<line x1="448" y1="236" x2="448" y2="330" stroke="#7a7a7a" stroke-width="1.3"/>
<circle cx="418" cy="52" r="2.6" fill="#d84a3a"/><circle cx="448" cy="86" r="2.6" fill="#2f6fe0"/><circle cx="478" cy="110" r="2.6" fill="#12a06d"/><circle cx="448" cy="330" r="2.6" fill="#7a7a7a"/>

<rect x="524" y="170" width="116" height="66" rx="5" fill="none" stroke="#8a8a8a" stroke-width="1.3"/>
<text class="th" x="582" y="196" text-anchor="middle">INA219</text>
<text class="ts" x="582" y="212" text-anchor="middle">0x40</text>
<line x1="542" y1="170" x2="542" y2="52" stroke="#d84a3a" stroke-width="1.3"/>
<line x1="572" y1="170" x2="572" y2="86" stroke="#2f6fe0" stroke-width="1.3"/>
<line x1="602" y1="170" x2="602" y2="110" stroke="#12a06d" stroke-width="1.3"/>
<line x1="558" y1="236" x2="558" y2="330" stroke="#7a7a7a" stroke-width="1.3"/>
<circle cx="542" cy="52" r="2.6" fill="#d84a3a"/><circle cx="572" cy="86" r="2.6" fill="#2f6fe0"/><circle cx="602" cy="110" r="2.6" fill="#12a06d"/><circle cx="558" cy="330" r="2.6" fill="#7a7a7a"/>
<text class="ts" x="598" y="252" text-anchor="middle">Vin+</text>
<text class="ts" x="632" y="252" text-anchor="middle">Vin−</text>

<text class="th" x="60" y="360">5V buzzer driver (NPN low-side)</text>
<text class="ts" x="130" y="380" text-anchor="middle">5V</text>
<line x1="130" y1="382" x2="130" y2="392" stroke="#c2760f" stroke-width="1.4"/>
<circle cx="130" cy="404" r="12" fill="none" stroke="#4b5563" stroke-width="1.3"/><text class="ts" x="130" y="408" text-anchor="middle">BZ</text>
<line x1="130" y1="416" x2="130" y2="430" stroke="#4b5563" stroke-width="1.4"/>
<line x1="130" y1="386" x2="172" y2="386" stroke="#4b5563" stroke-width="1.2"/>
<line x1="130" y1="422" x2="172" y2="422" stroke="#4b5563" stroke-width="1.2"/>
<line x1="172" y1="386" x2="172" y2="422" stroke="#4b5563" stroke-width="1.2"/>
<polygon points="166,420 178,420 172,410" fill="#4b5563"/><line x1="165" y1="404" x2="179" y2="404" stroke="#4b5563" stroke-width="1.6"/>
<text class="ts" x="184" y="406">flyback diode</text>
<circle cx="130" cy="452" r="15" fill="none" stroke="#4b5563" stroke-width="1.3"/>
<line x1="123" y1="442" x2="123" y2="462" stroke="#4b5563" stroke-width="1.8"/>
<line x1="106" y1="452" x2="123" y2="452" stroke="#4b5563" stroke-width="1.3"/>
<line x1="123" y1="446" x2="138" y2="438" stroke="#4b5563" stroke-width="1.3"/>
<line x1="138" y1="438" x2="138" y2="430" stroke="#4b5563" stroke-width="1.3"/>
<line x1="123" y1="458" x2="138" y2="466" stroke="#4b5563" stroke-width="1.3" marker-end="url(#ar)"/>
<line x1="138" y1="466" x2="138" y2="480" stroke="#4b5563" stroke-width="1.3"/>
<text class="ts" x="152" y="450">NPN S8050</text>
<text class="ts" x="152" y="434">C</text>
<text class="ts" x="152" y="470">E</text>
<line x1="60" y1="452" x2="76" y2="452" stroke="#4b5563" stroke-width="1.3"/>
<rect x="76" y="447" width="20" height="10" fill="none" stroke="#4b5563" stroke-width="1.2"/>
<line x1="96" y1="452" x2="106" y2="452" stroke="#4b5563" stroke-width="1.3"/>
<text class="ts" x="86" y="443" text-anchor="middle">1k</text>
<text class="ts" x="56" y="455" text-anchor="end">IO2</text>
<line x1="132" y1="480" x2="144" y2="480" stroke="#7a7a7a" stroke-width="1.4"/>
<line x1="134" y1="484" x2="142" y2="484" stroke="#7a7a7a" stroke-width="1.4"/>
<line x1="136" y1="488" x2="140" y2="488" stroke="#7a7a7a" stroke-width="1.4"/>

<rect x="360" y="418" width="112" height="50" rx="5" fill="none" stroke="#8a8a8a" stroke-width="1.3"/>
<text class="th" x="416" y="438" text-anchor="middle">5–6V ≥3A</text>
<text class="ts" x="416" y="453" text-anchor="middle">external supply</text>
<text class="ts" x="388" y="414" text-anchor="middle">＋</text><text class="ts" x="446" y="414" text-anchor="middle">－</text>
<rect x="525" y="418" width="118" height="52" rx="5" fill="none" stroke="#8a8a8a" stroke-width="1.3"/>
<text class="th" x="584" y="438" text-anchor="middle">MG996R</text>
<text class="ts" x="584" y="453" text-anchor="middle">servo DUT</text>
<text class="ts" x="548" y="414" text-anchor="middle">GND</text><text class="ts" x="590" y="414" text-anchor="middle">SIG</text><text class="ts" x="632" y="414" text-anchor="middle">V+</text>
<polyline points="388,418 388,398 598,398 598,236" fill="none" stroke="#d1961f" stroke-width="1.6"/>
<line x1="632" y1="236" x2="632" y2="348" stroke="#d1961f" stroke-width="1.6"/>
<path d="M632,348 q6,-6 0,-12 q-6,-6 0,-12 q6,-6 0,-12 q-6,-6 0,-12" fill="none" stroke="#d1961f" stroke-width="1.6" transform="translate(0,36)"/>
<line x1="632" y1="384" x2="632" y2="418" stroke="#d1961f" stroke-width="1.6"/>
<text class="ts" x="640" y="366">ferrite bead</text>
<line x1="632" y1="404" x2="600" y2="404" stroke="#d1961f" stroke-width="1.4"/>
<line x1="600" y1="396" x2="600" y2="412" stroke="#555" stroke-width="2.2"/>
<path d="M586,396 a14,14 0 0,0 0,16" fill="none" stroke="#555" stroke-width="2.2"/>
<line x1="586" y1="404" x2="548" y2="404" stroke="#7a7a7a" stroke-width="1.4"/>
<text class="ts" x="600" y="389" text-anchor="middle">＋</text>
<text class="ts" x="544" y="398" text-anchor="end">470–1000µF</text>
<line x1="446" y1="418" x2="446" y2="330" stroke="#7a7a7a" stroke-width="1.5"/>
<line x1="548" y1="418" x2="548" y2="330" stroke="#7a7a7a" stroke-width="1.5"/>
<circle cx="446" cy="330" r="2.6" fill="#7a7a7a"/><circle cx="548" cy="330" r="2.6" fill="#7a7a7a"/>
<line x1="590" y1="418" x2="590" y2="404" stroke="#9a5cc7" stroke-width="1.5"/>
<rect x="573" y="388" width="34" height="16" rx="3" fill="none" stroke="#9a5cc7" stroke-width="1"/><text class="ts" x="590" y="400" text-anchor="middle">PWM</text>

<text class="ts" x="40" y="524">Added: pull-up/base resistors · 0.1µF decoupling + 470–1000µF bulk cap · ferrite bead (LC filter for motor noise) · NPN (S8050) drives the 5V buzzer + flyback diode</text>
<text class="ts" x="40" y="540">GPIO 3.3V can't drive a 5V buzzer directly → low-side switch: 5V→buzzer→C, E→GND; IO2 through 1k to B.  ● = connection · all GND common</text>
</svg>
